<?xml version="1.0" standalone="no"?>
<!DOCTYPE svg PUBLIC "-//W3C//DTD SVG 20010904//EN"
 "http://www.w3.org/TR/2001/REC-SVG-20010904/DTD/svg10.dtd">
<svg version="1.0" xmlns="http://www.w3.org/2000/svg"
 width="1280.000000pt" height="720.000000pt" viewBox="0 0 1280.000000 720.000000"
 preserveAspectRatio="xMidYMid meet">

<g transform="translate(0.000000,720.000000) scale(0.100000,-0.100000)"
fill="#000000" stroke="none">
<path d="M6216 7060 c-60 -5 -136 -14 -170 -19 -111 -16 -359 -62 -368 -67 -5
-3 -46 -14 -91 -25 -45 -11 -91 -23 -102 -28 -11 -5 -56 -20 -100 -34 -82 -26
-204 -70 -240 -87 -11 -5 -51 -23 -90 -41 -38 -18 -86 -39 -105 -48 -34 -16
-225 -119 -265 -144 -93 -57 -281 -184 -323 -218 -16 -13 -46 -37 -68 -54
-183 -142 -452 -411 -574 -575 -14 -18 -36 -47 -49 -62 -34 -42 -168 -240
-218 -323 -29 -48 -153 -275 -153 -280 0 -2 -16 -40 -36 -82 -19 -43 -41 -91
-49 -108 -25 -57 -93 -250 -100 -285 -4 -19 -11 -39 -15 -45 -4 -5 -13 -35
-20 -65 -7 -30 -19 -73 -26 -95 -16 -50 -60 -289 -81 -445 -22 -161 -22 -679
0 -840 21 -156 65 -395 81 -445 7 -22 19 -65 26 -95 7 -30 16 -59 20 -65 4 -5
11 -26 15 -45 7 -35 75 -228 100 -285 8 -16 30 -65 49 -108 20 -42 36 -80 36
-83 0 -14 170 -310 226 -394 127 -191 137 -204 290 -385 135 -161 375 -385
549 -515 33 -25 62 -47 65 -51 3 -3 23 -16 45 -29 22 -13 42 -27 45 -30 5 -7
106 -72 162 -104 71 -42 221 -126 225 -126 2 0 36 -16 76 -36 39 -20 117 -54
172 -76 55 -22 114 -45 130 -53 125 -55 233 -45 310 31 57 54 83 107 95 191
11 79 14 500 3 506 -5 3 -46 -2 -93 -10 -108 -19 -401 -22 -490 -4 -159 31
-336 108 -449 193 -113 87 -220 214 -268 317 -76 167 -131 269 -178 335 -40
56 -129 146 -184 188 -88 67 -120 101 -127 135 -9 43 25 64 114 70 112 8 272
-42 371 -115 69 -51 178 -168 225 -242 91 -143 250 -267 409 -319 194 -64 453
-67 633 -9 l39 13 7 115 c10 156 25 245 54 309 17 38 21 57 13 61 -6 4 -43 13
-82 19 -40 7 -94 18 -122 26 -148 42 -331 98 -340 105 -5 3 -32 15 -60 25 -86
31 -277 130 -365 189 -146 98 -143 96 -256 196 -66 60 -172 187 -243 290 -42
62 -129 238 -151 307 -12 38 -26 77 -31 88 -13 28 -34 139 -54 279 -47 329 26
753 182 1056 28 55 36 69 102 170 37 57 117 158 158 198 26 26 28 35 10 54
-21 22 -66 138 -82 213 -25 110 -30 332 -11 446 16 96 67 250 92 280 8 8 14
19 14 24 0 4 11 23 26 42 22 29 31 33 70 33 73 0 271 -38 374 -71 104 -34 248
-104 350 -170 79 -51 222 -170 254 -212 l24 -30 59 21 c67 25 200 56 323 77
117 19 404 45 503 45 105 0 416 -27 527 -45 112 -18 294 -61 319 -74 33 -18
44 -13 111 54 94 94 246 197 388 265 160 76 412 140 549 140 43 0 50 -4 70
-33 24 -36 72 -126 90 -172 82 -205 76 -591 -12 -790 -26 -59 -25 -69 10 -100
17 -15 129 -165 158 -211 61 -99 138 -263 161 -349 9 -33 21 -69 26 -80 11
-26 26 -96 47 -220 20 -122 29 -495 14 -575 -6 -30 -18 -93 -26 -139 -23 -122
-80 -281 -143 -401 -30 -58 -58 -107 -62 -110 -4 -3 -19 -24 -33 -46 -63 -101
-201 -248 -327 -348 -187 -149 -439 -278 -710 -364 -101 -32 -344 -92 -373
-92 -36 0 -42 -15 -19 -53 22 -37 28 -59 48 -177 11 -66 14 -222 14 -704 0
-709 -1 -696 78 -786 104 -119 206 -118 480 6 29 13 55 24 59 24 11 0 286 141
369 188 111 65 319 205 344 232 3 3 21 17 40 30 19 13 37 27 40 30 3 3 30 25
60 50 159 130 354 328 486 495 106 135 116 148 174 235 27 41 53 80 58 85 12
17 87 145 137 235 57 105 144 293 175 380 13 36 27 70 30 75 6 8 38 110 105
335 7 25 23 95 34 155 12 61 26 130 31 155 52 229 52 924 0 1160 -6 25 -19 95
-31 155 -11 61 -27 130 -34 155 -53 181 -99 327 -105 335 -4 6 -13 28 -20 50
-20 64 -129 301 -188 410 -124 227 -193 330 -364 545 -144 182 -348 390 -494
505 -21 17 -56 45 -78 63 -54 43 -56 44 -96 72 -19 13 -37 27 -40 30 -15 18
-247 164 -320 202 -25 13 -47 26 -50 29 -6 7 -257 129 -266 129 -3 0 -27 11
-53 24 -83 41 -378 138 -571 186 -60 15 -270 51 -385 66 -135 18 -580 26 -729
14z"/>
</g>
</svg>
