<?xml version="1.0" standalone="no"?>
<!DOCTYPE svg PUBLIC "-//W3C//DTD SVG 20010904//EN"
 "http://www.w3.org/TR/2001/REC-SVG-20010904/DTD/svg10.dtd">
<svg version="1.0" xmlns="http://www.w3.org/2000/svg"
 width="920.000000pt" height="920.000000pt" viewBox="0 0 920.000000 920.000000"
 preserveAspectRatio="xMidYMid meet">

<g transform="translate(0.000000,920.000000) scale(0.100000,-0.100000)"
fill="#000000" stroke="none">
<path d="M3565 7349 c-240 -11 -367 -25 -505 -56 -313 -69 -553 -196 -755
-398 -202 -202 -329 -442 -398 -755 -54 -244 -67 -532 -67 -1532 0 -1044 14
-1333 75 -1586 71 -293 197 -524 390 -717 202 -202 442 -329 755 -398 249 -56
542 -68 1590 -66 846 2 1214 13 1385 44 369 66 637 197 860 420 202 202 329
444 399 756 55 251 63 448 63 1544 0 904 -10 1243 -41 1425 -65 369 -197 641
-421 865 -201 202 -444 329 -756 399 -142 31 -263 45 -499 55 -239 11 -1840
11 -2075 0z m2290 -508 c525 -69 819 -305 940 -753 59 -218 60 -238 60 -1473
0 -1225 -1 -1263 -54 -1477 -68 -275 -194 -466 -394 -596 -98 -64 -203 -108
-346 -143 -211 -52 -261 -54 -1481 -54 -1010 0 -1138 2 -1250 18 -382 52 -630
188 -788 430 -64 98 -108 203 -143 346 -52 211 -54 261 -54 1481 0 1008 2
1138 17 1250 72 521 302 805 749 925 119 32 218 45 399 55 233 12 2239 5 2345
-9z"/>
<path d="M5980 6391 c-76 -25 -150 -83 -192 -151 -43 -70 -53 -191 -23 -280
21 -62 99 -151 159 -180 165 -79 358 -17 444 145 24 45 27 61 27 150 0 85 -3
106 -23 143 -34 63 -84 114 -144 147 -45 25 -66 29 -138 32 -47 1 -96 -1 -110
-6z"/>
<path d="M4457 6010 c-509 -64 -915 -350 -1131 -795 -204 -419 -187 -912 44
-1315 126 -219 293 -389 509 -517 378 -225 833 -261 1245 -99 348 137 648 435
787 781 73 184 102 334 102 535 0 269 -62 494 -198 725 -209 353 -566 599
-971 669 -112 20 -298 27 -387 16z m303 -504 c461 -84 785 -494 757 -960 -25
-403 -302 -738 -697 -840 -92 -24 -250 -31 -350 -17 -451 66 -788 453 -790
906 -1 445 317 829 755 910 92 17 232 18 325 1z"/>
</g>
</svg>
