<?xml version="1.0" standalone="no"?>
<!DOCTYPE svg PUBLIC "-//W3C//DTD SVG 20010904//EN"
 "http://www.w3.org/TR/2001/REC-SVG-20010904/DTD/svg10.dtd">
<svg version="1.0" xmlns="http://www.w3.org/2000/svg"
 width="980.000000pt" height="980.000000pt" viewBox="0 0 980.000000 980.000000"
 preserveAspectRatio="xMidYMid meet">

<g transform="translate(0.000000,980.000000) scale(0.100000,-0.100000)"
fill="#000000" stroke="none">
<path d="M3180 7829 c-85 -5 -194 -15 -241 -24 -496 -85 -860 -449 -944 -944
-29 -171 -35 -484 -35 -1966 0 -1483 5 -1782 35 -1956 84 -495 449 -860 944
-944 171 -29 484 -35 1971 -35 1489 0 1774 5 1951 35 495 84 860 448 944 944
29 171 35 484 35 1971 0 1489 -5 1774 -35 1951 -83 494 -449 860 -944 944 -47
8 -174 19 -281 25 -235 12 -3175 11 -3400 -1z m479 -1170 c246 -56 385 -355
271 -586 -83 -169 -269 -267 -446 -234 -339 62 -469 457 -233 706 105 111 246
150 408 114z m2351 -1154 c157 -41 366 -170 451 -277 54 -68 151 -267 181
-372 l23 -81 0 -825 0 -825 -355 0 -355 0 -5 705 c-6 767 -4 741 -64 844 -80
137 -257 211 -444 185 -205 -29 -322 -127 -381 -323 -20 -66 -21 -87 -21 -737
l0 -669 -22 -5 c-13 -3 -174 -4 -358 -3 l-335 3 -3 1183 -2 1182 335 0 335 0
0 -165 0 -166 78 79 c136 140 313 236 512 278 89 18 342 12 430 -11z m-2092
-1197 l-3 -1183 -365 0 -365 0 -3 1170 c-1 644 0 1176 3 1183 3 9 87 12 370
12 l365 0 -2 -1182z"/>
</g>
</svg>
