<svg width="120" height="120" viewBox="0 0 120 120" fill="none" xmlns="http://www.w3.org/2000/svg">
<path d="M7.5 7.5H112.5V112.5H7.5V7.5Z" fill="#F5DE19"/>
<path d="M78.0338 89.5312C78.9284 91.3485 80.3183 92.8759 82.0434 93.9375C83.7684 94.9991 85.7584 95.5515 87.7838 95.5313C91.8713 95.5313 94.485 93.4875 94.485 90.6562C94.485 87.2812 91.8 86.0738 87.3 84.105L84.8325 83.0475C77.7075 80.0138 72.9825 76.215 72.9825 68.1825C72.9825 60.7838 78.6075 55.1475 87.4313 55.1475C90.2877 54.9412 93.1416 55.5805 95.637 56.9856C98.1324 58.3907 100.159 60.4994 101.464 63.0488L93.75 67.98C93.2476 66.716 92.3728 65.6345 91.2416 64.879C90.1105 64.1236 88.7764 63.7298 87.4163 63.75C86.8229 63.6906 86.2236 63.7555 85.6567 63.9404C85.0897 64.1254 84.5675 64.4265 84.1234 64.8244C83.6792 65.2224 83.3228 65.7085 83.0769 66.2518C82.831 66.7951 82.7009 67.3837 82.695 67.98C82.695 70.9388 84.5288 72.1388 88.7625 73.98L91.23 75.0375C99.615 78.6338 104.355 82.2975 104.355 90.5363C104.355 99.42 97.3763 104.287 88.005 104.287C84.3537 104.52 80.713 103.691 77.5223 101.901C74.3317 100.11 71.7274 97.4342 70.0238 94.1963L78.0338 89.5312ZM43.1775 90.3863C44.7263 93.135 46.1363 95.46 49.5263 95.46C52.7663 95.46 54.8138 94.1925 54.8138 89.2612V55.71H64.68V89.3925C64.68 99.6075 58.68 104.257 49.9463 104.257C46.8591 104.426 43.7931 103.657 41.1513 102.051C38.5096 100.444 36.4157 98.0761 35.145 95.2575L43.1775 90.3863Z" fill="black"/>
<g clip-path="url(#clip0_14_58)">
<path d="M8 60.5V8H113V113H8" fill="#007ACC"/>
<path d="M31.0212 60.6837V64.9625H44.6712V103.813H54.3575V64.9625H68.0075V60.7625C68.0075 58.4 68.0075 56.4837 67.9025 56.4312C67.9025 56.3525 59.5812 56.3262 49.475 56.3262L31.1 56.405V60.71L31.0212 60.6837ZM92.3675 56.3C95.045 56.93 97.0925 58.1375 98.93 60.0537C99.9012 61.1037 101.345 62.9412 101.45 63.4137C101.45 63.5712 96.9087 66.6425 94.1525 68.3487C94.0475 68.4275 93.6275 67.9812 93.2075 67.2987C91.8425 65.3562 90.4512 64.5162 88.2725 64.3587C85.1225 64.1487 83.0225 65.8025 83.0225 68.5587C83.0225 69.3987 83.18 69.8712 83.495 70.5537C84.2037 71.9975 85.5162 72.8637 89.585 74.6487C97.0925 77.8775 100.347 80.0037 102.316 83.0487C104.547 86.4612 105.046 91.8163 103.55 95.8325C101.87 100.216 97.775 103.182 91.9212 104.154C90.0837 104.469 85.8837 104.416 83.915 104.075C79.715 103.288 75.6987 101.188 73.2312 98.4838C72.26 97.4338 70.3962 94.625 70.5012 94.4412L71.4987 93.8112L75.4362 91.5275L78.4025 89.795L79.085 90.7138C79.9512 92.0788 81.8937 93.9163 83.0225 94.5463C86.435 96.305 91.0025 96.0688 93.26 94.0213C94.2312 93.1288 94.6512 92.1838 94.6512 90.8713C94.6512 89.6638 94.4675 89.1125 93.8637 88.1937C93.0237 87.0387 91.3437 86.0937 86.6187 83.9937C81.185 81.6837 78.875 80.2137 76.7225 77.9562C75.4887 76.5912 74.36 74.465 73.835 72.7062C73.4412 71.1837 73.31 67.4562 73.6775 65.96C74.8062 60.71 78.77 57.035 84.44 55.985C86.2775 55.6175 90.6087 55.775 92.42 56.2475L92.3675 56.3Z" fill="white"/>
</g>
<defs>
<clipPath id="clip0_14_58">
<rect width="105" height="105" fill="white" transform="translate(8 8)"/>
</clipPath>
</defs>
</svg>
